<svg xmlns="http://www.w3.org/2000/svg" xmlns:xlink="http://www.w3.org/1999/xlink" viewBox="0 0 960 216">
  <linearGradient id="iucca" gradientTransform="rotate(90)">
    <stop offset="0%" stop-color="#df73ff"/>
    <stop offset="100%" stop-color="#75bfff"/>
  </linearGradient>
  <g fill="url(#iucca)">
    <rect x="0" y="0" width="72" height="216"></rect>
    <g transform="translate(78, 0)">
      <polygon points="0,0 72,0 72,144 144,144 144,0 216,0 216,216 0,216 z"/>
    </g>
    <g transform="translate(300, 0)">
      <polygon points="0,0 216,0 216,72 72,72 72,144 216,144 216,216, 0,216 z" id="c"/>
    </g>
    <g transform="translate(522, 0)">
      <use xlink:href="#c"/>
    </g>
    <g transform="translate(744, 0)">
      <path d="M 0,0 L 216,0 216,216 190,216 190,192 150,216 0,216 z M 72,72 L 72,144 144,144 144,72 z"/>
    </g>
  </g>
</svg>
